<svg xmlns="http://www.w3.org/2000/svg" viewBox="0 0 103.02 80.51"><defs><style>.cls-1{fill:#a780ff;}.cls-2{fill:#504341;}</style></defs><title>Asset 2</title><g id="Layer_2" data-name="Layer 2"><g id="Layer_1-2" data-name="Layer 1"><polygon class="cls-1" points="20.54 23.81 43.1 34.6 65.67 23.81 43.1 13.02 20.54 23.81"/><path class="cls-2" d="M43.1,35.56a1,1,0,0,1-.41-.09L20.12,24.68a1,1,0,0,1,0-1.73L42.69,12.15a1,1,0,0,1,.83,0L66.08,22.94a1,1,0,0,1,0,1.73L43.52,35.46A1,1,0,0,1,43.1,35.56ZM22.76,23.81,43.1,33.54l20.34-9.72L43.1,14.08Z"/><polygon class="cls-1" points="20.54 23.81 20.54 51.09 43.1 61.88 43.1 34.6 20.54 23.81"/><path class="cls-2" d="M43.1,62.84a1,1,0,0,1-.41-.09L20.12,52a1,1,0,0,1-.55-.87V23.81A1,1,0,0,1,21,22.94L43.52,33.73a1,1,0,0,1,.55.87V61.88a1,1,0,0,1-1,1ZM21.5,50.48l20.64,9.87V35.2L21.5,25.33Z"/><polygon class="cls-1" points="43.1 61.88 65.67 51.09 65.67 23.81 43.1 34.6 43.1 61.88"/><path class="cls-2" d="M43.1,62.84a1,1,0,0,1-.51-.15,1,1,0,0,1-.45-.81V34.6a1,1,0,0,1,.55-.87L65.25,22.94a1,1,0,0,1,1.37.87V51.08a1,1,0,0,1-.55.87L43.52,62.74A1,1,0,0,1,43.1,62.84Zm1-27.63V60.35l20.65-9.87V25.33Z"/><path class="cls-2" d="M102.06,80.51H1a1,1,0,0,1-1-1V1A1,1,0,0,1,1,0h101.1a1,1,0,0,1,1,1V79.55A1,1,0,0,1,102.06,80.51ZM1.92,78.59H101.1V1.92H1.92Z"/><circle class="cls-1" cx="66.07" cy="51.07" r="16.42"/><path class="cls-2" d="M66.07,68.44A17.38,17.38,0,1,1,83.45,51.07,17.4,17.4,0,0,1,66.07,68.44Zm0-32.83A15.46,15.46,0,1,0,81.53,51.07,15.47,15.47,0,0,0,66.07,35.61Z"/><path class="cls-1" d="M76.76,51.07a10.65,10.65,0,0,1-1.05,4.63"/><path class="cls-2" d="M75.71,56.66a.94.94,0,0,1-.42-.1,1,1,0,0,1-.45-1.28,9.66,9.66,0,0,0,1-4.21,1,1,0,1,1,1.92,0,11.54,11.54,0,0,1-1.15,5A1,1,0,0,1,75.71,56.66Z"/><path class="cls-1" d="M56.26,55.32A10.69,10.69,0,0,1,70.85,41.51"/><path class="cls-2" d="M56.26,56.28a1,1,0,0,1-.88-.58,11.65,11.65,0,0,1,15.9-15.05,1,1,0,1,1-.86,1.72,9.64,9.64,0,0,0-4.35-1,9.74,9.74,0,0,0-8.93,13.6,1,1,0,0,1-.5,1.26A.94.94,0,0,1,56.26,56.28Z"/><line class="cls-1" x1="66.07" y1="51.07" x2="76.24" y2="43.94"/><path class="cls-2" d="M66.07,52a1,1,0,0,1-.55-1.75l10.16-7.13a1,1,0,1,1,1.1,1.57L66.62,51.86A1,1,0,0,1,66.07,52Z"/></g></g></svg>