<svg xmlns="http://www.w3.org/2000/svg" viewBox="0 0 299.78 185.38"><defs><style>.cls-1{fill:#ffc0ae;}.cls-2{fill:#504341;}.cls-3{fill:#ff9678;}.cls-4{fill:#fff;}.cls-5{fill:#e7e5e5;}.cls-6{fill:#a8f0ec;}.cls-7{fill:#a7e2fe;}.cls-8{fill:#fffca9;}.cls-21,.cls-9{fill:#f8f7f7;}.cls-9{fill-rule:evenodd;}.cls-10{fill:#d1d3d4;}.cls-11{fill:#777776;}.cls-12{fill:#f1f2f2;}.cls-13{fill:#bb9cff;}.cls-14{fill:#968e8d;}.cls-15{fill:#9160ff;}.cls-16{fill:#6ee6e0;}.cls-17{fill:#68f385;}.cls-18{fill:#6c6d7d;}.cls-19{fill:#ffca8c;}.cls-20{fill:#ff6f80;}.cls-22{fill:#6892f3;}.cls-23{fill:#ffa9b3;}</style></defs><title>services_1</title><g id="Layer_2" data-name="Layer 2"><g id="Layer_1-2" data-name="Layer 1"><polygon class="cls-1" points="299.28 97.79 299.28 22.69 277.09 22.69 277.09 0.5 159.66 0.5 159.66 97.79 299.28 97.79"/><path class="cls-2" d="M299.28,98.29H159.65a.5.5,0,0,1-.5-.5V.5a.5.5,0,0,1,.5-.5H277.09a.5.5,0,0,1,.5.5V22.19h21.69a.5.5,0,0,1,.5.5v75.1A.5.5,0,0,1,299.28,98.29Zm-139.12-1H298.78V23.19H277.09a.5.5,0,0,1-.5-.5V1H160.15Z"/><polygon class="cls-3" points="277.09 0.5 277.09 22.69 299.28 22.69 277.09 0.5"/><path class="cls-2" d="M299.28,23.19H277.09a.5.5,0,0,1-.5-.5V.5a.5.5,0,0,1,.85-.35l22.19,22.19a.5.5,0,0,1-.35.85Zm-21.69-1h20.48L277.59,1.71Z"/><rect class="cls-4" x="255.63" y="30.06" width="30.1" height="2.27"/><path class="cls-2" d="M285.74,32.83h-30.1a.5.5,0,0,1-.5-.5V30.06a.5.5,0,0,1,.5-.5h30.1a.5.5,0,0,1,.5.5v2.27A.5.5,0,0,1,285.74,32.83Zm-29.6-1h29.1V30.56h-29.1Z"/><rect class="cls-4" x="255.63" y="35.36" width="30.1" height="2.27"/><path class="cls-2" d="M285.74,38.13h-30.1a.5.5,0,0,1-.5-.5V35.36a.5.5,0,0,1,.5-.5h30.1a.5.5,0,0,1,.5.5v2.27A.5.5,0,0,1,285.74,38.13Zm-29.6-1h29.1V35.86h-29.1Z"/><rect class="cls-4" x="255.63" y="40.65" width="30.1" height="2.27"/><path class="cls-2" d="M285.74,43.42h-30.1a.5.5,0,0,1-.5-.5V40.65a.5.5,0,0,1,.5-.5h30.1a.5.5,0,0,1,.5.5v2.27A.5.5,0,0,1,285.74,43.42Zm-29.6-1h29.1V41.15h-29.1Z"/><rect class="cls-4" x="255.63" y="45.95" width="30.1" height="2.27"/><path class="cls-2" d="M285.74,48.72h-30.1a.5.5,0,0,1-.5-.5V45.95a.5.5,0,0,1,.5-.5h30.1a.5.5,0,0,1,.5.5v2.27A.5.5,0,0,1,285.74,48.72Zm-29.6-1h29.1V46.45h-29.1Z"/><rect class="cls-4" x="255.63" y="51.24" width="30.1" height="2.27"/><path class="cls-2" d="M285.74,54h-30.1a.5.5,0,0,1-.5-.5V51.24a.5.5,0,0,1,.5-.5h30.1a.5.5,0,0,1,.5.5v2.27A.5.5,0,0,1,285.74,54Zm-29.6-1h29.1V51.74h-29.1Z"/><rect class="cls-4" x="255.35" y="61.15" width="30.1" height="2.27"/><path class="cls-2" d="M285.45,63.92h-30.1a.5.5,0,0,1-.5-.5V61.15a.5.5,0,0,1,.5-.5h30.1a.5.5,0,0,1,.5.5v2.27A.5.5,0,0,1,285.45,63.92Zm-29.6-1h29.1V61.65h-29.1Z"/><rect class="cls-4" x="255.35" y="66.45" width="30.1" height="2.27"/><path class="cls-2" d="M285.45,69.22h-30.1a.5.5,0,0,1-.5-.5V66.45a.5.5,0,0,1,.5-.5h30.1a.5.5,0,0,1,.5.5v2.27A.5.5,0,0,1,285.45,69.22Zm-29.6-1h29.1V66.95h-29.1Z"/><rect class="cls-4" x="255.35" y="71.74" width="30.1" height="2.27"/><path class="cls-2" d="M285.45,74.51h-30.1a.5.5,0,0,1-.5-.5V71.74a.5.5,0,0,1,.5-.5h30.1a.5.5,0,0,1,.5.5V74A.5.5,0,0,1,285.45,74.51Zm-29.6-1h29.1V72.24h-29.1Z"/><rect class="cls-4" x="255.35" y="77.04" width="30.1" height="2.27"/><path class="cls-2" d="M285.45,79.81h-30.1a.5.5,0,0,1-.5-.5V77a.5.5,0,0,1,.5-.5h30.1a.5.5,0,0,1,.5.5v2.27A.5.5,0,0,1,285.45,79.81Zm-29.6-1h29.1V77.54h-29.1Z"/><rect class="cls-4" x="255.35" y="82.33" width="30.1" height="2.27"/><path class="cls-2" d="M285.45,85.1h-30.1a.5.5,0,0,1-.5-.5V82.33a.5.5,0,0,1,.5-.5h30.1a.5.5,0,0,1,.5.5V84.6A.5.5,0,0,1,285.45,85.1Zm-29.6-1h29.1V82.83h-29.1Z"/><rect class="cls-5" x="175.97" y="14.36" width="32.93" height="5.55"/><path class="cls-2" d="M208.91,20.41H176a.5.5,0,0,1-.5-.5V14.36a.5.5,0,0,1,.5-.5h32.93a.5.5,0,0,1,.5.5v5.55A.5.5,0,0,1,208.91,20.41Zm-32.43-1h31.93V14.86H176.47Z"/><rect class="cls-6" x="175.97" y="29.54" width="32.93" height="24.64"/><path class="cls-2" d="M208.91,54.69H176a.5.5,0,0,1-.5-.5V29.54a.5.5,0,0,1,.5-.5h32.93a.5.5,0,0,1,.5.5V54.19A.5.5,0,0,1,208.91,54.69Zm-32.43-1h31.93V30H176.47Z"/><rect class="cls-7" x="215.73" y="29.54" width="32.93" height="24.64"/><path class="cls-2" d="M248.66,54.69H215.73a.5.5,0,0,1-.5-.5V29.54a.5.5,0,0,1,.5-.5h32.93a.5.5,0,0,1,.5.5V54.19A.5.5,0,0,1,248.66,54.69Zm-32.43-1h31.93V30H216.23Z"/><g id="_Group_" data-name="&lt;Group&gt;"><g id="envelope"><rect class="cls-8" x="55.59" y="0.86" width="73.93" height="36.97" transform="translate(-0.03 0.15) rotate(-0.09)"/><path class="cls-2" d="M55.62,38.39a.5.5,0,0,1-.5-.5l-.06-37a.5.5,0,0,1,.5-.5L129.49.3h0a.5.5,0,0,1,.5.5l.06,37a.5.5,0,0,1-.5.5l-73.94.12Zm.44-37,.06,36,72.94-.12L129,1.3Z"/><path class="cls-9" d="M95.79,17.32l25.86,0A1.37,1.37,0,0,1,123,18.64l0,11.57a1.37,1.37,0,0,1-1.36,1.37l-25.86,0a1.37,1.37,0,0,1-1.36-1.36l0-11.57A1.37,1.37,0,0,1,95.79,17.32Z"/><path class="cls-2" d="M95.81,32.12h0a1.87,1.87,0,0,1-1.86-1.86l0-11.57a1.87,1.87,0,0,1,1.86-1.86l25.86,0a1.87,1.87,0,0,1,1.87,1.86l0,11.57a1.87,1.87,0,0,1-1.86,1.87Zm25.84-14.34-25.86,0a.87.87,0,0,0-.86.86l0,11.57a.86.86,0,0,0,.86.86l25.86,0a.87.87,0,0,0,.86-.87l0-11.57A.87.87,0,0,0,121.65,17.78Z"/><circle class="cls-4" cx="91.87" cy="4.97" r="1.59" transform="translate(86.72 96.83) rotate(-89.89)"/><path class="cls-2" d="M91.87,7.06h0a2.09,2.09,0,1,1,1.49-3.56,2.09,2.09,0,0,1-1.48,3.56Zm0-3.18A1.09,1.09,0,1,0,93,5a1.09,1.09,0,0,0-1.09-1.09Z"/></g></g><g id="_Group_2" data-name="&lt;Group&gt;"><g id="post_it" data-name="post it"><rect class="cls-4" x="1.1" y="0.99" width="46.37" height="46.37"/><path class="cls-2" d="M47.47,47.86H1.1a.5.5,0,0,1-.5-.5V1a.5.5,0,0,1,.5-.5H47.47A.5.5,0,0,1,48,1V47.36A.5.5,0,0,1,47.47,47.86Zm-45.87-1H47V1.49H1.6Z"/><rect class="cls-10" x="1.1" y="0.99" width="46.37" height="5.49"/><path class="cls-2" d="M47.47,7H1.1a.5.5,0,0,1-.5-.5V1a.5.5,0,0,1,.5-.5H47.47A.5.5,0,0,1,48,1V6.48A.5.5,0,0,1,47.47,7ZM1.6,6H47V1.49H1.6Z"/><path class="cls-11" d="M23,12.58h3.8l9,24.86H32.11L29.51,30H19.76l-2.7,7.45H13.61Zm5.58,14.67-3.83-11-4,11Z"/><path class="cls-2" d="M35.79,37.94H32.11a.5.5,0,0,1-.47-.34L29.15,30.5h-9l-2.58,7.12a.5.5,0,0,1-.47.33H13.61a.5.5,0,0,1-.47-.68L22.5,12.41a.5.5,0,0,1,.47-.32h3.8a.5.5,0,0,1,.47.33l9,24.86a.5.5,0,0,1-.47.67Zm-3.33-1h2.62L26.42,13.08h-3.1l-9,23.86h2.38l2.58-7.12a.5.5,0,0,1,.47-.33h9.75a.5.5,0,0,1,.47.34Zm-3.91-9.19h-7.8a.5.5,0,0,1-.47-.67l4-11a.5.5,0,0,1,.47-.33h0a.5.5,0,0,1,.47.34l3.83,11a.5.5,0,0,1-.47.66Zm-7.09-1h6.39l-3.13-9Z"/></g></g><g id="_Group_3" data-name="&lt;Group&gt;"><g id="computer"><g id="computer-2" data-name="computer"><g id="laptop"><path class="cls-4" d="M242.07,43.59H61.73a6.62,6.62,0,0,0-6.57,6.85V174.56H248.64V50.43a6.62,6.62,0,0,0-6.57-6.85"/><path class="cls-2" d="M248.64,175.06H55.15a.5.5,0,0,1-.5-.5V50.43a7.14,7.14,0,0,1,7.07-7.35H242.07a7.14,7.14,0,0,1,7.07,7.35V174.56A.5.5,0,0,1,248.64,175.06Zm-193-1H248.14V50.43a6.15,6.15,0,0,0-6.07-6.35H61.73a6.15,6.15,0,0,0-6.07,6.35Z"/><path class="cls-10" d="M247,45.82a6.39,6.39,0,0,0-4.91-2.23m0,0H61.73a6.62,6.62,0,0,0-6.57,6.85V174.56H248.64V50.43A7,7,0,0,0,247,45.82"/><path class="cls-2" d="M248.64,175.06H55.15a.5.5,0,0,1-.5-.5V50.43a7.14,7.14,0,0,1,7.07-7.35H242.07a6.87,6.87,0,0,1,5.29,2.4h0a7.55,7.55,0,0,1,1.79,4.94V174.56A.5.5,0,0,1,248.64,175.06Zm-193-1H248.14V50.43a6.56,6.56,0,0,0-1.55-4.29h0a5.88,5.88,0,0,0-4.53-2.06H61.73a6.15,6.15,0,0,0-6.07,6.35Z"/><path class="cls-4" d="M55.15,174.58H27.42V178A6.71,6.71,0,0,0,34,184.8H269.81a6.71,6.71,0,0,0,6.57-6.84v-3.38H55.15"/><path class="cls-2" d="M269.81,185.3H34A7.22,7.22,0,0,1,26.92,178v-3.38a.5.5,0,0,1,.5-.5h249a.5.5,0,0,1,.5.5V178A7.22,7.22,0,0,1,269.81,185.3ZM27.92,175.08V178A6.21,6.21,0,0,0,34,184.3H269.81a6.22,6.22,0,0,0,6.07-6.34v-2.88Z"/><rect class="cls-12" x="65.19" y="51.2" width="174.51" height="115.11"/><path class="cls-2" d="M239.7,166.81H65.19a.5.5,0,0,1-.5-.5V51.2a.5.5,0,0,1,.5-.5H239.7a.5.5,0,0,1,.5.5V166.31A.5.5,0,0,1,239.7,166.81Zm-174-1H239.2V51.7H65.69Z"/><circle class="cls-13" cx="154.24" cy="47.24" r="1.91"/><path class="cls-2" d="M154.24,49.65a2.41,2.41,0,1,1,2.41-2.41A2.41,2.41,0,0,1,154.24,49.65Zm0-3.82a1.41,1.41,0,1,0,1.41,1.41A1.41,1.41,0,0,0,154.24,45.82Z"/><rect class="cls-4" x="73.52" y="64.6" width="159.7" height="87.51"/><path class="cls-2" d="M233.22,152.61H73.52a.5.5,0,0,1-.5-.5V64.6a.5.5,0,0,1,.5-.5h159.7a.5.5,0,0,1,.5.5v87.51A.5.5,0,0,1,233.22,152.61Zm-159.2-1h158.7V65.1H74Z"/><rect class="cls-14" x="73.52" y="64.6" width="159.7" height="5.95"/><path class="cls-2" d="M233.22,71.05H73.52a.5.5,0,0,1-.5-.5V64.6a.5.5,0,0,1,.5-.5h159.7a.5.5,0,0,1,.5.5v5.95A.5.5,0,0,1,233.22,71.05ZM74,70.05h158.7V65.1H74Z"/><rect class="cls-4" x="77.91" y="75.23" width="9.28" height="9.28"/><path class="cls-2" d="M87.19,85H77.91a.5.5,0,0,1-.5-.5V75.23a.5.5,0,0,1,.5-.5h9.28a.5.5,0,0,1,.5.5v9.28A.5.5,0,0,1,87.19,85Zm-8.78-1h8.28V75.73H78.41Z"/><rect class="cls-4" x="89.6" y="75.23" width="9.28" height="9.28"/><path class="cls-2" d="M98.88,85H89.6a.5.5,0,0,1-.5-.5V75.23a.5.5,0,0,1,.5-.5h9.28a.5.5,0,0,1,.5.5v9.28A.5.5,0,0,1,98.88,85ZM90.1,84h8.28V75.73H90.1Z"/><rect class="cls-13" x="77.91" y="87.51" width="9.28" height="9.28"/><path class="cls-2" d="M87.19,97.3H77.91a.5.5,0,0,1-.5-.5V87.51a.5.5,0,0,1,.5-.5h9.28a.5.5,0,0,1,.5.5V96.8A.5.5,0,0,1,87.19,97.3Zm-8.78-1h8.28V88H78.41Z"/><rect class="cls-15" x="89.6" y="87.51" width="9.28" height="9.28"/><path class="cls-2" d="M98.88,97.3H89.6a.5.5,0,0,1-.5-.5V87.51a.5.5,0,0,1,.5-.5h9.28a.5.5,0,0,1,.5.5V96.8A.5.5,0,0,1,98.88,97.3Zm-8.78-1h8.28V88H90.1Z"/><rect class="cls-15" x="77.91" y="99.8" width="9.28" height="9.28"/><path class="cls-2" d="M87.19,109.58H77.91a.5.5,0,0,1-.5-.5V99.8a.5.5,0,0,1,.5-.5h9.28a.5.5,0,0,1,.5.5v9.28A.5.5,0,0,1,87.19,109.58Zm-8.78-1h8.28V100.3H78.41Z"/><rect class="cls-7" x="89.6" y="99.8" width="9.28" height="9.28"/><path class="cls-2" d="M98.88,109.58H89.6a.5.5,0,0,1-.5-.5V99.8a.5.5,0,0,1,.5-.5h9.28a.5.5,0,0,1,.5.5v9.28A.5.5,0,0,1,98.88,109.58Zm-8.78-1h8.28V100.3H90.1Z"/><rect class="cls-6" x="77.91" y="112.09" width="9.28" height="9.28"/><path class="cls-2" d="M87.19,121.87H77.91a.5.5,0,0,1-.5-.5v-9.28a.5.5,0,0,1,.5-.5h9.28a.5.5,0,0,1,.5.5v9.28A.5.5,0,0,1,87.19,121.87Zm-8.78-1h8.28v-8.28H78.41Z"/><rect class="cls-4" x="89.6" y="112.09" width="9.28" height="9.28"/><path class="cls-2" d="M98.88,121.87H89.6a.5.5,0,0,1-.5-.5v-9.28a.5.5,0,0,1,.5-.5h9.28a.5.5,0,0,1,.5.5v9.28A.5.5,0,0,1,98.88,121.87Zm-8.78-1h8.28v-8.28H90.1Z"/><rect class="cls-4" x="77.91" y="124.37" width="9.28" height="9.28"/><path class="cls-2" d="M87.19,134.15H77.91a.5.5,0,0,1-.5-.5v-9.28a.5.5,0,0,1,.5-.5h9.28a.5.5,0,0,1,.5.5v9.28A.5.5,0,0,1,87.19,134.15Zm-8.78-1h8.28v-8.28H78.41Z"/><rect class="cls-13" x="89.6" y="124.37" width="9.28" height="9.28"/><path class="cls-2" d="M98.88,134.15H89.6a.5.5,0,0,1-.5-.5v-9.28a.5.5,0,0,1,.5-.5h9.28a.5.5,0,0,1,.5.5v9.28A.5.5,0,0,1,98.88,134.15Zm-8.78-1h8.28v-8.28H90.1Z"/><rect class="cls-13" x="77.91" y="136.66" width="9.28" height="9.28"/><path class="cls-2" d="M87.19,146.44H77.91a.5.5,0,0,1-.5-.5v-9.28a.5.5,0,0,1,.5-.5h9.28a.5.5,0,0,1,.5.5v9.28A.5.5,0,0,1,87.19,146.44Zm-8.78-1h8.28v-8.28H78.41Z"/><rect class="cls-4" x="89.6" y="136.66" width="9.28" height="9.28"/><path class="cls-2" d="M98.88,146.44H89.6a.5.5,0,0,1-.5-.5v-9.28a.5.5,0,0,1,.5-.5h9.28a.5.5,0,0,1,.5.5v9.28A.5.5,0,0,1,98.88,146.44Zm-8.78-1h8.28v-8.28H90.1Z"/><rect class="cls-13" x="219.76" y="75.23" width="9.28" height="9.28"/><path class="cls-2" d="M229,85h-9.28a.5.5,0,0,1-.5-.5V75.23a.5.5,0,0,1,.5-.5H229a.5.5,0,0,1,.5.5v9.28A.5.5,0,0,1,229,85Zm-8.78-1h8.28V75.73h-8.28Z"/><rect class="cls-4" x="219.76" y="87.51" width="9.28" height="9.28"/><path class="cls-2" d="M229,97.3h-9.28a.5.5,0,0,1-.5-.5V87.51a.5.5,0,0,1,.5-.5H229a.5.5,0,0,1,.5.5V96.8A.5.5,0,0,1,229,97.3Zm-8.78-1h8.28V88h-8.28Z"/><rect class="cls-4" x="219.76" y="99.8" width="9.28" height="9.28"/><path class="cls-2" d="M229,109.58h-9.28a.5.5,0,0,1-.5-.5V99.8a.5.5,0,0,1,.5-.5H229a.5.5,0,0,1,.5.5v9.28A.5.5,0,0,1,229,109.58Zm-8.78-1h8.28V100.3h-8.28Z"/><rect class="cls-4" x="219.76" y="112.09" width="9.28" height="9.28"/><path class="cls-2" d="M229,121.87h-9.28a.5.5,0,0,1-.5-.5v-9.28a.5.5,0,0,1,.5-.5H229a.5.5,0,0,1,.5.5v9.28A.5.5,0,0,1,229,121.87Zm-8.78-1h8.28v-8.28h-8.28Z"/><rect class="cls-4" x="219.76" y="124.37" width="9.28" height="9.28"/><path class="cls-2" d="M229,134.15h-9.28a.5.5,0,0,1-.5-.5v-9.28a.5.5,0,0,1,.5-.5H229a.5.5,0,0,1,.5.5v9.28A.5.5,0,0,1,229,134.15Zm-8.78-1h8.28v-8.28h-8.28Z"/><rect class="cls-13" x="219.76" y="136.66" width="9.28" height="9.28"/><path class="cls-2" d="M229,146.44h-9.28a.5.5,0,0,1-.5-.5v-9.28a.5.5,0,0,1,.5-.5H229a.5.5,0,0,1,.5.5v9.28A.5.5,0,0,1,229,146.44Zm-8.78-1h8.28v-8.28h-8.28Z"/><rect class="cls-4" x="207.54" y="75.23" width="9.28" height="9.28"/><path class="cls-2" d="M216.82,85h-9.28a.5.5,0,0,1-.5-.5V75.23a.5.5,0,0,1,.5-.5h9.28a.5.5,0,0,1,.5.5v9.28A.5.5,0,0,1,216.82,85ZM208,84h8.28V75.73H208Z"/><rect class="cls-4" x="207.54" y="87.51" width="9.28" height="9.28"/><path class="cls-2" d="M216.82,97.3h-9.28a.5.5,0,0,1-.5-.5V87.51a.5.5,0,0,1,.5-.5h9.28a.5.5,0,0,1,.5.5V96.8A.5.5,0,0,1,216.82,97.3Zm-8.78-1h8.28V88H208Z"/><rect class="cls-13" x="207.54" y="99.8" width="9.28" height="9.28"/><path class="cls-2" d="M216.82,109.58h-9.28a.5.5,0,0,1-.5-.5V99.8a.5.5,0,0,1,.5-.5h9.28a.5.5,0,0,1,.5.5v9.28A.5.5,0,0,1,216.82,109.58Zm-8.78-1h8.28V100.3H208Z"/><rect class="cls-4" x="207.54" y="112.09" width="9.28" height="9.28"/><path class="cls-2" d="M216.82,121.87h-9.28a.5.5,0,0,1-.5-.5v-9.28a.5.5,0,0,1,.5-.5h9.28a.5.5,0,0,1,.5.5v9.28A.5.5,0,0,1,216.82,121.87Zm-8.78-1h8.28v-8.28H208Z"/><rect class="cls-15" x="207.54" y="124.37" width="9.28" height="9.28"/><path class="cls-2" d="M216.82,134.15h-9.28a.5.5,0,0,1-.5-.5v-9.28a.5.5,0,0,1,.5-.5h9.28a.5.5,0,0,1,.5.5v9.28A.5.5,0,0,1,216.82,134.15Zm-8.78-1h8.28v-8.28H208Z"/><rect class="cls-4" x="207.54" y="136.66" width="9.28" height="9.28"/><path class="cls-2" d="M216.82,146.44h-9.28a.5.5,0,0,1-.5-.5v-9.28a.5.5,0,0,1,.5-.5h9.28a.5.5,0,0,1,.5.5v9.28A.5.5,0,0,1,216.82,146.44Zm-8.78-1h8.28v-8.28H208Z"/></g><path class="cls-5" d="M137,174.62h-4.28v1.08c0,1.2.45,2.18,1,2.18h36.42c.56,0,1-1,1-2.18v-1.08H137"/><path class="cls-2" d="M170.11,178.37H133.69c-.88,0-1.51-1.13-1.51-2.68v-1.08a.5.5,0,0,1,.5-.5h38.45a.5.5,0,0,1,.5.5v1.08C171.62,177.25,171,178.37,170.11,178.37Zm-36.93-3.26v.58c0,1.09.39,1.65.52,1.68H170.1c.13,0,.52-.58.52-1.68v-.58Z"/></g></g></g><g id="_Group_4" data-name="&lt;Group&gt;"><g id="book"><rect class="cls-16" x="33.95" y="87.96" width="13.84" height="96.91"/><path class="cls-2" d="M47.8,185.38H34a.5.5,0,0,1-.5-.5V88a.5.5,0,0,1,.5-.5H47.8a.5.5,0,0,1,.5.5v96.91A.5.5,0,0,1,47.8,185.38Zm-13.34-1H47.3V88.46H34.45Z"/><rect class="cls-15" x="33.95" y="99.04" width="13.84" height="2.77"/><path class="cls-2" d="M47.8,102.31H34a.5.5,0,0,1-.5-.5V99a.5.5,0,0,1,.5-.5H47.8a.5.5,0,0,1,.5.5v2.77A.5.5,0,0,1,47.8,102.31Zm-13.34-1H47.3V99.54H34.45Z"/><rect class="cls-15" x="33.95" y="171.03" width="13.84" height="2.77"/><path class="cls-2" d="M47.8,174.3H34a.5.5,0,0,1-.5-.5V171a.5.5,0,0,1,.5-.5H47.8a.5.5,0,0,1,.5.5v2.77A.5.5,0,0,1,47.8,174.3Zm-13.34-1H47.3v-1.77H34.45Z"/></g><g id="book-2" data-name="book"><rect class="cls-17" x="0.5" y="87.96" width="13.84" height="96.91"/><path class="cls-18" d="M14.34,185.38H.5a.5.5,0,0,1-.5-.5V88a.5.5,0,0,1,.5-.5H14.34a.5.5,0,0,1,.5.5v96.91A.5.5,0,0,1,14.34,185.38ZM1,184.38H13.84V88.46H1Z"/><rect class="cls-5" x="0.5" y="99.04" width="13.84" height="2.77"/><path class="cls-18" d="M14.34,102.31H.5a.5.5,0,0,1-.5-.5V99a.5.5,0,0,1,.5-.5H14.34a.5.5,0,0,1,.5.5v2.77A.5.5,0,0,1,14.34,102.31ZM1,101.31H13.84V99.54H1Z"/><rect class="cls-5" x="0.5" y="171.03" width="13.84" height="2.77"/><path class="cls-18" d="M14.34,174.3H.5a.5.5,0,0,1-.5-.5V171a.5.5,0,0,1,.5-.5H14.34a.5.5,0,0,1,.5.5v2.77A.5.5,0,0,1,14.34,174.3ZM1,173.3H13.84v-1.77H1Z"/></g><g id="book-3" data-name="book"><rect class="cls-19" x="14.51" y="87.96" width="19.38" height="96.91"/><path class="cls-18" d="M33.89,185.38H14.51a.5.5,0,0,1-.5-.5V88a.5.5,0,0,1,.5-.5H33.89a.5.5,0,0,1,.5.5v96.91A.5.5,0,0,1,33.89,185.38Zm-18.88-1H33.39V88.46H15Z"/><rect class="cls-20" x="14.51" y="99.04" width="19.38" height="13.84"/><path class="cls-18" d="M33.89,113.38H14.51a.5.5,0,0,1-.5-.5V99a.5.5,0,0,1,.5-.5H33.89a.5.5,0,0,1,.5.5v13.84A.5.5,0,0,1,33.89,113.38Zm-18.88-1H33.39V99.54H15Z"/><rect class="cls-4" x="14.51" y="159.96" width="19.38" height="13.84"/><path class="cls-18" d="M33.89,174.3H14.51a.5.5,0,0,1-.5-.5V160a.5.5,0,0,1,.5-.5H33.89a.5.5,0,0,1,.5.5V173.8A.5.5,0,0,1,33.89,174.3ZM15,173.3H33.39V160.46H15Z"/></g></g><g id="_Group_5" data-name="&lt;Group&gt;"><path class="cls-21" d="M297.41,179.23a5.43,5.43,0,0,1-5.43,5.42l-30.08,0a5.43,5.43,0,0,1-5.42-5.44l.08-70.8A5.43,5.43,0,0,1,262,103l30.08,0a5.43,5.43,0,0,1,5.42,5.44Z"/><path class="cls-2" d="M292,185.16h0l-30.08,0a5.94,5.94,0,0,1-5.92-5.94l.08-70.8a5.94,5.94,0,0,1,5.93-5.92l30.09,0a5.94,5.94,0,0,1,5.92,5.94l-.08,70.8A5.93,5.93,0,0,1,292,185.16Zm-30-81.69a4.94,4.94,0,0,0-4.93,4.92l-.08,70.8a4.94,4.94,0,0,0,4.92,4.94l30.08,0v0a4.93,4.93,0,0,0,4.93-4.92l.08-70.8a4.94,4.94,0,0,0-4.93-4.94Z"/><rect class="cls-6" x="247.2" y="126.09" width="58.97" height="36.59" transform="translate(132 420.91) rotate(-89.94)"/><path class="cls-2" d="M294.94,174.37h0l-36.58,0a.48.48,0,0,1-.48-.48l.06-59a.48.48,0,0,1,.48-.48h0l36.59,0a.48.48,0,0,1,.48.48l-.06,59A.48.48,0,0,1,294.94,174.37Zm-36.1-1,35.62,0,.06-58-35.62,0Z"/><path class="cls-4" d="M279.52,179.16a2.59,2.59,0,1,1-2.58-2.59,2.59,2.59,0,0,1,2.58,2.59"/><path class="cls-2" d="M276.94,182.24h0a3.08,3.08,0,1,1,3.09-3.08A3.07,3.07,0,0,1,276.93,182.24Zm0-5.17a2.09,2.09,0,0,0-2.09,2.08,2.08,2.08,0,0,0,2.08,2.09v0a2.08,2.08,0,0,0,1.48-3.56A2.06,2.06,0,0,0,276.94,177.07Z"/><rect class="cls-4" x="261.83" y="165.38" width="6.39" height="5.93" transform="translate(-1.23 1.94) rotate(-0.42)"/><path class="cls-2" d="M261.85,171.83a.5.5,0,0,1-.5-.5l0-5.93a.5.5,0,0,1,.5-.5l6.39,0a.5.5,0,0,1,.5.5l0,5.93a.5.5,0,0,1-.5.5l-6.39,0Zm.46-5.93,0,4.93,5.39,0,0-4.93Z"/><rect class="cls-13" x="269.85" y="165.32" width="6.39" height="5.93" transform="translate(-1.2 1.96) rotate(-0.41)"/><path class="cls-2" d="M269.87,171.77a.5.5,0,0,1-.5-.5l0-5.93a.5.5,0,0,1,.5-.5l6.39,0h0a.5.5,0,0,1,.5.5l0,5.93a.5.5,0,0,1-.5.5l-6.4,0Zm.46-5.93,0,4.93,5.4,0,0-4.93Z"/><rect class="cls-22" x="277.87" y="165.26" width="6.39" height="5.93" transform="translate(-1.2 2.02) rotate(-0.41)"/><path class="cls-2" d="M277.89,171.71a.5.5,0,0,1-.5-.5l0-5.93a.5.5,0,0,1,.5-.5l6.39,0a.63.63,0,0,1,.35.14.5.5,0,0,1,.15.35l0,5.93a.5.5,0,0,1-.5.5l-6.39,0Zm.46-5.93,0,4.93,5.39,0,0-4.93Z"/><rect class="cls-4" x="285.89" y="165.2" width="6.39" height="5.93" transform="translate(-1.25 2.17) rotate(-0.43)"/><path class="cls-2" d="M285.91,171.66a.5.5,0,0,1-.5-.5l0-5.93a.5.5,0,0,1,.5-.5l6.39,0h0a.5.5,0,0,1,.5.5l0,5.93a.5.5,0,0,1-.5.5l-6.39,0Zm.46-5.93,0,4.93,5.39,0,0-4.93Z"/><path class="cls-13" d="M290.35,143.06a13.11,13.11,0,0,0-13.21-13l.1,13.11Z"/><path class="cls-2" d="M277.24,143.66a.5.5,0,0,1-.5-.5l-.1-13.11a.5.5,0,0,1,.5-.5h.1a13.64,13.64,0,0,1,13.61,13.51.5.5,0,0,1-.5.5l-13.11.1Zm.41-13.1.09,12.1,12.1-.09A12.65,12.65,0,0,0,277.64,130.55Z"/><path class="cls-8" d="M271.53,131.37a13.1,13.1,0,0,0-7.4,11.88l13-.1Z"/><path class="cls-2" d="M264.13,143.75a.5.5,0,0,1-.5-.5,13.67,13.67,0,0,1,7.68-12.34.5.5,0,0,1,.67.24l5.6,11.79a.5.5,0,0,1-.45.71l-13,.1ZM271.3,132a12.67,12.67,0,0,0-6.66,10.7l11.71-.09Z"/><path class="cls-23" d="M277.24,143.16l-.1-13.11a13,13,0,0,0-5.61,1.32l5.6,11.79Z"/><path class="cls-2" d="M277.13,143.66a.5.5,0,0,1-.45-.29l-5.6-11.79a.5.5,0,0,1,.23-.66,13.44,13.44,0,0,1,5.83-1.37.53.53,0,0,1,.5.5l.1,13.11a.5.5,0,0,1-.5.5h-.11Zm-4.93-12,4.53,9.52-.08-10.57A12.42,12.42,0,0,0,272.2,131.61Z"/><path class="cls-17" d="M290.35,143.06l-13.11.1v.23L282.77,155a13.1,13.1,0,0,0,7.57-12"/><path class="cls-2" d="M282.77,155.53a.5.5,0,0,1-.45-.29l-5.53-11.64a.51.51,0,0,1,0-.21v-.23a.5.5,0,0,1,.5-.5l13.11-.1h0a.5.5,0,0,1,.5.5A13.64,13.64,0,0,1,283,155.48.5.5,0,0,1,282.77,155.53Zm-4.85-11.87,5.09,10.7a12.65,12.65,0,0,0,6.83-10.79Z"/><path class="cls-7" d="M277.33,156.26a13,13,0,0,0,5.44-1.24l-5.53-11.65Z"/><path class="cls-2" d="M277.33,156.76a.5.5,0,0,1-.5-.5l-.09-12.88a.5.5,0,0,1,1-.22l5.53,11.65a.5.5,0,0,1-.24.67,13.5,13.5,0,0,1-5.65,1.28Zm.42-11.13.07,10.12a12.46,12.46,0,0,0,4.27-1Z"/><path class="cls-15" d="M277.13,143.16l-13,.1a13.11,13.11,0,0,0,13.21,13l-.09-12.88Z"/><path class="cls-2" d="M277.23,156.76a13.64,13.64,0,0,1-13.61-13.51.5.5,0,0,1,.5-.5l13-.1a.57.57,0,0,1,.46.28l.11.22a.51.51,0,0,1,0,.21l.09,12.88a.5.5,0,0,1-.5.5Zm-12.59-13a12.65,12.65,0,0,0,12.19,12l-.09-12.1Z"/></g><rect class="cls-4" x="103.67" y="75.38" width="98.81" height="70.91"/><path class="cls-2" d="M202.48,146.76H103.67a.47.47,0,0,1-.47-.47V75.38a.47.47,0,0,1,.47-.47h98.81a.47.47,0,0,1,.47.47v70.91A.47.47,0,0,1,202.48,146.76Zm-98.34-.94H202v-70H104.14Z"/><path class="cls-12" d="M176.85,113.46v-5.25H172.9a19.8,19.8,0,0,0-1.31-5l3.4-2-2.63-4.55-3.42,2a20,20,0,0,0-3.62-3.62l2-3.42L162.75,89l-2,3.41a19.74,19.74,0,0,0-5-1.31V87.18h-5.26v3.95a19.77,19.77,0,0,0-5,1.31l-2-3.41-4.56,2.63,2,3.42a20,20,0,0,0-3.63,3.63l-3.42-2-2.63,4.55,3.41,2a19.76,19.76,0,0,0-1.31,5h-3.95v5.25h3.95a19.77,19.77,0,0,0,1.32,5l-3.41,2,2.63,4.54,3.42-2a20,20,0,0,0,3.63,3.63l-2,3.42,4.56,2.63,2-3.4a19.82,19.82,0,0,0,5,1.32v3.94h5.24v-3.94a19.8,19.8,0,0,0,5-1.31l2,3.4,4.54-2.63-2-3.42A20,20,0,0,0,169,123l3.42,2,2.63-4.55-3.4-2a19.81,19.81,0,0,0,1.31-5Zm-23.65,1.81a4.44,4.44,0,1,1,4.44-4.44A4.43,4.43,0,0,1,153.2,115.27Z"/><path class="cls-2" d="M155.82,135h-5.25a.5.5,0,0,1-.5-.5V131a20.29,20.29,0,0,1-4.26-1.12l-1.74,3a.5.5,0,0,1-.3.23.5.5,0,0,1-.38,0l-4.56-2.63a.5.5,0,0,1-.18-.68l1.77-3a20.49,20.49,0,0,1-3.11-3.11l-3,1.76a.5.5,0,0,1-.68-.18L131,120.64a.5.5,0,0,1,.18-.68l3-1.75a20.32,20.32,0,0,1-1.12-4.25h-3.51a.5.5,0,0,1-.5-.5v-5.25a.5.5,0,0,1,.5-.5h3.51a20.27,20.27,0,0,1,1.12-4.25l-3-1.75A.5.5,0,0,1,131,101l2.63-4.55a.5.5,0,0,1,.68-.18l3,1.76a20.49,20.49,0,0,1,3.1-3.1l-1.77-3a.5.5,0,0,1,.18-.68l4.56-2.63a.5.5,0,0,1,.68.18l1.74,3a20.31,20.31,0,0,1,4.24-1.12V87.18a.5.5,0,0,1,.5-.5h5.26a.5.5,0,0,1,.5.5v3.51a20.27,20.27,0,0,1,4.24,1.12l1.75-3a.5.5,0,0,1,.3-.23.49.49,0,0,1,.38.05l4.54,2.63a.5.5,0,0,1,.18.68L166,95a20.48,20.48,0,0,1,3.1,3.1l3-1.75a.5.5,0,0,1,.68.18l2.63,4.55a.5.5,0,0,1,.05.38.51.51,0,0,1-.23.3l-3,1.74a20.33,20.33,0,0,1,1.12,4.25h3.51a.5.5,0,0,1,.5.5v5.25a.5.5,0,0,1-.5.5h-3.51a20.28,20.28,0,0,1-1.12,4.25l3,1.74a.5.5,0,0,1,.18.68l-2.63,4.55a.5.5,0,0,1-.68.18l-3-1.75a20.44,20.44,0,0,1-3.1,3.1l1.75,3a.5.5,0,0,1-.18.68L163,133.07a.5.5,0,0,1-.68-.18l-1.75-3a20.29,20.29,0,0,1-4.25,1.12v3.51a.5.5,0,0,1-.5.5Zm-4.74-1h4.24v-3.44a.5.5,0,0,1,.43-.5,19.32,19.32,0,0,0,4.84-1.28.5.5,0,0,1,.62.21l1.72,3,3.68-2.13-1.71-3a.5.5,0,0,1,.13-.64,19.52,19.52,0,0,0,3.53-3.53.5.5,0,0,1,.64-.13l3,1.72,2.13-3.68-3-1.71a.5.5,0,0,1-.21-.62,19.31,19.31,0,0,0,1.28-4.85.5.5,0,0,1,.5-.43h3.45v-4.25H172.9a.5.5,0,0,1-.5-.43,19.34,19.34,0,0,0-1.28-4.84.5.5,0,0,1,.21-.62l3-1.71-2.13-3.68-3,1.72a.5.5,0,0,1-.64-.13A19.5,19.5,0,0,0,165,95.48a.5.5,0,0,1-.13-.65l1.71-3-3.68-2.13-1.72,3a.5.5,0,0,1-.62.21,19.28,19.28,0,0,0-4.83-1.28.5.5,0,0,1-.43-.5V87.68h-4.26v3.45a.5.5,0,0,1-.43.5,19.29,19.29,0,0,0-4.83,1.28.5.5,0,0,1-.62-.21l-1.71-3-3.69,2.13,1.73,3a.5.5,0,0,1-.13.65A19.49,19.49,0,0,0,137.84,99a.5.5,0,0,1-.65.13l-3-1.72-2.13,3.68,3,1.71a.5.5,0,0,1,.21.63,19.28,19.28,0,0,0-1.28,4.84.5.5,0,0,1-.5.43H130V113h3.45a.5.5,0,0,1,.5.43,19.3,19.3,0,0,0,1.28,4.84.5.5,0,0,1-.21.63l-3,1.71,2.13,3.68,3-1.72a.5.5,0,0,1,.65.13,19.43,19.43,0,0,0,3.54,3.54.5.5,0,0,1,.13.65l-1.73,3,3.69,2.13,1.71-3a.5.5,0,0,1,.62-.21,19.32,19.32,0,0,0,4.85,1.28.5.5,0,0,1,.43.5Zm2.12-18.21a4.94,4.94,0,1,1,4.94-4.94A4.95,4.95,0,0,1,153.2,115.77Zm0-8.88a3.94,3.94,0,1,0,3.94,3.95A3.95,3.95,0,0,0,153.2,106.89Z"/><path class="cls-22" d="M153.2,101.06a9.77,9.77,0,1,0,9.77,9.78A9.78,9.78,0,0,0,153.2,101.06Zm0,14.17a4.39,4.39,0,1,1,4.39-4.39A4.39,4.39,0,0,1,153.2,115.23Z"/><path class="cls-2" d="M153.2,121.11a10.27,10.27,0,1,1,10.27-10.27A10.29,10.29,0,0,1,153.2,121.11Zm0-19.55a9.27,9.27,0,1,0,9.27,9.28A9.29,9.29,0,0,0,153.2,101.56Zm0,14.17a4.89,4.89,0,1,1,4.89-4.89A4.9,4.9,0,0,1,153.2,115.73Zm0-8.79a3.89,3.89,0,1,0,3.89,3.9A3.9,3.9,0,0,0,153.2,106.94Z"/><polygon class="cls-20" points="18.45 51.1 18.45 73.99 14.12 73.99 24.48 84.35 34.84 73.99 30.52 73.99 30.52 51.08 18.45 51.1"/><path class="cls-2" d="M24.48,84.85a.5.5,0,0,1-.35-.15L13.77,74.34a.5.5,0,0,1,.35-.85h3.83V51.1a.5.5,0,0,1,.5-.5l12.07,0h0a.5.5,0,0,1,.5.5V73.49h3.82a.5.5,0,0,1,.35.85L24.83,84.7A.5.5,0,0,1,24.48,84.85ZM15.33,74.49l9.15,9.15,9.15-9.15H30.52A.5.5,0,0,1,30,74V51.58l-11.07,0V74a.5.5,0,0,1-.5.5Z"/><g id="_Group_6" data-name="&lt;Group&gt;"><polygon class="cls-18" points="10.61 77.55 7.33 77.55 7.33 74.28 6.24 74.28 6.24 77.55 2.96 77.55 2.96 78.64 6.24 78.64 6.24 81.92 7.33 81.92 7.33 78.64 10.61 78.64 10.61 77.55"/></g><g id="_Group_7" data-name="&lt;Group&gt;"><polygon class="cls-18" points="27.19 166.05 23.92 166.05 23.92 162.78 22.83 162.78 22.83 166.05 19.55 166.05 19.55 167.14 22.83 167.14 22.83 170.42 23.92 170.42 23.92 167.14 27.19 167.14 27.19 166.05"/></g><g id="_Group_8" data-name="&lt;Group&gt;"><path class="cls-2" d="M155.8,2.31h-4.28V1.21h4.28Zm0,13h-4.28v-1.1h4.28Zm-8.55-13H143V1.21h4.27Zm-8.55,0h-4.28V1.21h4.28Z"/></g><g id="_Group_9" data-name="&lt;Group&gt;"><polygon class="cls-4" points="45.85 56.66 41.17 56.66 41.17 51.97 39.61 51.97 39.61 56.66 34.92 56.66 34.92 58.22 39.61 58.22 39.61 62.9 41.17 62.9 41.17 58.22 45.85 58.22 45.85 56.66"/></g><g id="_Group_10" data-name="&lt;Group&gt;"><polygon class="cls-4" points="150.07 23.14 145.39 23.14 145.39 18.45 143.83 18.45 143.83 23.14 139.14 23.14 139.14 24.7 143.83 24.7 143.83 29.39 145.39 29.39 145.39 24.7 150.07 24.7 150.07 23.14"/></g><line class="cls-4" x1="89.6" y1="160.64" x2="97.93" y2="160.64"/><path class="cls-2" d="M97.93,161.14H89.6a.5.5,0,0,1,0-1h8.33a.5.5,0,0,1,0,1Z"/><line class="cls-4" x1="104.43" y1="160.64" x2="112.76" y2="160.64"/><path class="cls-2" d="M112.76,161.14h-8.33a.5.5,0,1,1,0-1h8.33a.5.5,0,0,1,0,1Z"/><line class="cls-4" x1="119.26" y1="160.64" x2="127.6" y2="160.64"/><path class="cls-2" d="M127.6,161.14h-8.33a.5.5,0,1,1,0-1h8.33a.5.5,0,0,1,0,1Z"/><line class="cls-4" x1="134.1" y1="160.64" x2="142.43" y2="160.64"/><path class="cls-2" d="M142.43,161.14H134.1a.5.5,0,0,1,0-1h8.33a.5.5,0,0,1,0,1Z"/><line class="cls-4" x1="148.93" y1="160.64" x2="157.26" y2="160.64"/><path class="cls-2" d="M157.26,161.14h-8.33a.5.5,0,0,1,0-1h8.33a.5.5,0,0,1,0,1Z"/><line class="cls-4" x1="163.76" y1="160.64" x2="172.1" y2="160.64"/><path class="cls-2" d="M172.1,161.14h-8.33a.5.5,0,0,1,0-1h8.33a.5.5,0,0,1,0,1Z"/><line class="cls-4" x1="178.6" y1="160.64" x2="186.93" y2="160.64"/><path class="cls-2" d="M186.93,161.14H178.6a.5.5,0,0,1,0-1h8.33a.5.5,0,0,1,0,1Z"/><line class="cls-4" x1="193.43" y1="160.64" x2="201.76" y2="160.64"/><path class="cls-2" d="M201.76,161.14h-8.33a.5.5,0,0,1,0-1h8.33a.5.5,0,0,1,0,1Z"/><line class="cls-4" x1="208.26" y1="160.64" x2="216.6" y2="160.64"/><path class="cls-2" d="M216.6,161.14h-8.33a.5.5,0,0,1,0-1h8.33a.5.5,0,0,1,0,1Z"/><circle class="cls-4" cx="40.33" cy="78.14" r="2.5"/><circle class="cls-4" cx="136.83" cy="33.64" r="2.5"/><circle class="cls-4" cx="7.33" cy="155.64" r="2.5"/><circle class="cls-13" cx="189.83" cy="129.14" r="2.5"/><circle class="cls-13" cx="257.83" cy="16.64" r="2.5"/></g></g></svg>