<svg xmlns="http://www.w3.org/2000/svg" viewBox="0 0 63.22 61.68"><defs><style>.cls-1{fill:#f8f7f7;}.cls-2{fill:#6c6d7d;}.cls-3{fill:#fff;}.cls-4{fill:#c7d6fb;}</style></defs><title>chat</title><g id="Layer_2" data-name="Layer 2"><g id="Layer_1-2" data-name="Layer 1"><g id="messages"><path class="cls-1" d="M7.16,60.44V52.17H.51V24.7H42.16V52.17H15.42Z"/><path class="cls-2" d="M6.64,61.68v-9H0V24.18H42.68v28.5h-27ZM1,51.65H7.67v7.54l7.54-7.54H41.65V25.21H1Z"/><path class="cls-3" d="M53.53,48.45,42.71,37.63H11.36V.52H62.71V37.63H53.53Z"/><path class="cls-2" d="M54,49.69,42.5,38.14H10.85V0H63.22V38.14H54ZM11.88,37.11h31L53,47.21V37.11h9.17V1H11.88Z"/><rect class="cls-4" x="21.37" y="10.5" width="31.33" height="3.39"/><path class="cls-2" d="M53.21,14.4H20.85V10H53.21Zm-31.33-1h30.3V11H21.88Z"/><rect class="cls-4" x="21.37" y="17.35" width="31.33" height="3.39"/><path class="cls-2" d="M53.21,21.25H20.85V16.83H53.21Zm-31.33-1h30.3V17.86H21.88Z"/><rect class="cls-4" x="21.37" y="24.19" width="31.33" height="3.39"/><path class="cls-2" d="M53.21,28.09H20.85V23.68H53.21Zm-31.33-1h30.3V24.71H21.88Z"/></g></g></g></svg>