<svg xmlns="http://www.w3.org/2000/svg" viewBox="0 0 63.87 56.38"><defs><style>.cls-1{fill:#a7e2fe;}.cls-2{fill:#504341;}.cls-3{fill:#6ccefd;}.cls-4{fill:#8ad8fd;}.cls-5{fill:#d1d3d4;}.cls-6{fill:#a780ff;}</style></defs><title>services</title><g id="Layer_2" data-name="Layer 2"><g id="Layer_1-2" data-name="Layer 1"><polygon class="cls-1" points="0.96 11.75 23.52 22.54 46.09 11.75 23.52 0.96 0.96 11.75"/><path class="cls-2" d="M23.52,23.5a1,1,0,0,1-.41-.09L.55,12.62a1,1,0,0,1,0-1.73L23.11.09a1,1,0,0,1,.83,0L46.5,10.88a1,1,0,0,1,0,1.73L23.94,23.4A1,1,0,0,1,23.52,23.5ZM3.19,11.75l20.34,9.72,20.34-9.72L23.52,2Z"/><polygon class="cls-3" points="0.96 11.75 0.96 39.02 23.52 49.81 23.52 22.54 0.96 11.75"/><path class="cls-2" d="M23.52,50.77a1,1,0,0,1-.41-.09L.55,39.89A1,1,0,0,1,0,39V11.75a1,1,0,0,1,1.37-.87L23.94,21.67a1,1,0,0,1,.55.87V49.81a1,1,0,0,1-1,1ZM1.92,38.42l20.64,9.87V23.14L1.92,13.27Z"/><polygon class="cls-4" points="23.52 49.81 46.09 39.02 46.09 11.75 23.52 22.54 23.52 49.81"/><path class="cls-2" d="M23.52,50.77a1,1,0,0,1-.51-.15,1,1,0,0,1-.45-.81V22.54a1,1,0,0,1,.55-.87L45.68,10.88a1,1,0,0,1,1.37.87V39a1,1,0,0,1-.55.87L23.94,50.68A1,1,0,0,1,23.52,50.77Zm1-27.63V48.29l20.65-9.87V13.27Z"/><circle class="cls-5" cx="46.5" cy="39.01" r="16.42"/><path class="cls-2" d="M46.5,56.38A17.38,17.38,0,1,1,63.87,39,17.4,17.4,0,0,1,46.5,56.38Zm0-32.83A15.46,15.46,0,1,0,62,39,15.47,15.47,0,0,0,46.5,23.55Z"/><path class="cls-6" d="M57.19,39a10.65,10.65,0,0,1-1.05,4.63"/><path class="cls-2" d="M56.13,44.6a.94.94,0,0,1-.42-.1,1,1,0,0,1-.45-1.28,9.66,9.66,0,0,0,1-4.21,1,1,0,1,1,1.92,0,11.54,11.54,0,0,1-1.15,5A1,1,0,0,1,56.13,44.6Z"/><path class="cls-5" d="M36.68,43.26A10.69,10.69,0,0,1,51.28,29.45"/><path class="cls-2" d="M36.68,44.22a1,1,0,0,1-.88-.58,11.65,11.65,0,0,1,15.9-15.05,1,1,0,1,1-.86,1.72,9.64,9.64,0,0,0-4.35-1,9.74,9.74,0,0,0-8.93,13.6,1,1,0,0,1-.5,1.26A.94.94,0,0,1,36.68,44.22Z"/><line class="cls-6" x1="46.5" y1="39.01" x2="56.66" y2="31.88"/><path class="cls-2" d="M46.5,40a1,1,0,0,1-.55-1.75L56.11,31.1a1,1,0,1,1,1.1,1.57L47,39.79A1,1,0,0,1,46.5,40Z"/></g></g></svg>