<svg xmlns="http://www.w3.org/2000/svg" viewBox="0 0 103.03 80.5"><defs><style>.cls-1{fill:#f1f2f2;}.cls-2{fill:#a7e2fe;}.cls-3{fill:#504341;}.cls-4{fill:#6ccefd;}.cls-5{fill:#8ad8fd;}.cls-6{fill:#d1d3d4;}.cls-7{fill:#a780ff;}</style></defs><title>services_2</title><g id="Layer_2" data-name="Layer 2"><g id="Layer_1-2" data-name="Layer 1"><rect class="cls-1" x="1.92" y="1.92" width="99.19" height="76.66"/><polygon class="cls-2" points="20.54 23.81 43.1 34.59 65.67 23.81 43.1 13.02 20.54 23.81"/><path class="cls-3" d="M43.1,35.55a1,1,0,0,1-.41-.09L20.13,24.67a1,1,0,0,1,0-1.73L42.69,12.15a1,1,0,0,1,.83,0L66.08,22.94a1,1,0,0,1,0,1.73L43.52,35.46A1,1,0,0,1,43.1,35.55ZM22.77,23.81,43.1,33.53l20.34-9.72L43.1,14.08Z"/><polygon class="cls-4" points="20.54 23.81 20.54 51.08 43.1 61.87 43.1 34.59 20.54 23.81"/><path class="cls-3" d="M43.1,62.83a1,1,0,0,1-.41-.09L20.13,51.95a1,1,0,0,1-.55-.87V23.81A1,1,0,0,1,21,22.94L43.52,33.73a1,1,0,0,1,.55.87V61.87a1,1,0,0,1-1,1ZM21.5,50.48l20.64,9.87V35.2L21.5,25.33Z"/><polygon class="cls-5" points="43.1 61.87 65.67 51.08 65.67 23.81 43.1 34.59 43.1 61.87"/><path class="cls-3" d="M43.1,62.83a1,1,0,0,1-.51-.15,1,1,0,0,1-.45-.81V34.59a1,1,0,0,1,.55-.87L65.26,22.94a1,1,0,0,1,1.37.87V51.08a1,1,0,0,1-.55.87L43.52,62.74A1,1,0,0,1,43.1,62.83Zm1-27.63V60.35l20.65-9.87V25.33Z"/><path class="cls-3" d="M102.07,0H1A1,1,0,0,0,0,1V79.54a1,1,0,0,0,1,1H102.07a1,1,0,0,0,1-1V1A1,1,0,0,0,102.07,0Zm-1,78.58H1.92V1.92h99.19Z"/><circle class="cls-6" cx="66.08" cy="51.07" r="16.42"/><path class="cls-3" d="M66.08,68.44A17.38,17.38,0,1,1,83.45,51.07,17.4,17.4,0,0,1,66.08,68.44Zm0-32.83A15.46,15.46,0,1,0,81.53,51.07,15.47,15.47,0,0,0,66.08,35.61Z"/><path class="cls-7" d="M76.77,51.07a10.65,10.65,0,0,1-1.05,4.63"/><path class="cls-3" d="M75.71,56.66a.94.94,0,0,1-.42-.1,1,1,0,0,1-.45-1.28,9.66,9.66,0,0,0,1-4.21,1,1,0,1,1,1.92,0,11.54,11.54,0,0,1-1.15,5A1,1,0,0,1,75.71,56.66Z"/><path class="cls-6" d="M56.26,55.32A10.69,10.69,0,0,1,70.86,41.5"/><path class="cls-3" d="M56.26,56.28a1,1,0,0,1-.88-.58,11.65,11.65,0,0,1,15.9-15.05,1,1,0,1,1-.86,1.72,9.64,9.64,0,0,0-4.35-1,9.74,9.74,0,0,0-8.93,13.6,1,1,0,0,1-.5,1.26A.94.94,0,0,1,56.26,56.28Z"/><line class="cls-7" x1="66.08" y1="51.07" x2="76.24" y2="43.94"/><path class="cls-3" d="M66.08,52a1,1,0,0,1-.55-1.75l10.16-7.13a1,1,0,1,1,1.1,1.57L66.63,51.85A1,1,0,0,1,66.08,52Z"/></g></g></svg>